<?xml version="1.0" standalone="no"?>
<!DOCTYPE svg PUBLIC "-//W3C//DTD SVG 20010904//EN"
 "http://www.w3.org/TR/2001/REC-SVG-20010904/DTD/svg10.dtd">
<svg version="1.0" xmlns="http://www.w3.org/2000/svg"
 width="512.000000pt" height="512.000000pt" viewBox="0 0 512.000000 512.000000"
 preserveAspectRatio="xMidYMid meet">
<metadata>
Created by potrace 1.11, written by Peter Selinger 2001-2013
</metadata>
<g transform="translate(0.000000,512.000000) scale(0.100000,-0.100000)"
fill="#000000" stroke="none">
<path d="M1653 3884 c-71 -14 -123 -29 -123 -36 0 -4 -6 -8 -14 -8 -8 0 -24
-12 -35 -27 -12 -16 -48 -63 -81 -105 -33 -43 -60 -82 -60 -87 0 -5 -3 -11 -8
-13 -8 -4 -182 -226 -182 -233 0 -4 -18 -28 -45 -59 -5 -6 -50 -65 -100 -131
-111 -146 -133 -169 -176 -184 -19 -6 -127 -12 -249 -14 -201 -3 -217 -4 -250
-25 -19 -12 -46 -38 -60 -58 l-25 -38 -3 -480 c-2 -325 1 -495 8 -525 6 -24
24 -57 40 -73 53 -52 78 -57 289 -55 l193 2 18 65 c48 184 173 336 340 417 38
18 95 39 95 35 0 -1 20 4 45 12 55 16 204 14 280 -3 59 -14 200 -79 200 -92 0
-4 8 -10 18 -13 39 -13 137 -123 184 -206 25 -46 52 -117 66 -180 l8 -35 534
0 534 0 12 48 c7 26 12 49 12 50 5 37 68 154 115 212 121 149 281 225 480 230
61 1 107 -2 107 -7 0 -5 5 -6 10 -3 9 6 55 -5 100 -22 8 -4 17 -7 20 -8 55
-19 169 -92 208 -134 98 -104 147 -193 176 -316 l12 -50 190 -3 c212 -3 253 5
298 59 43 50 48 94 44 338 -4 179 -8 237 -22 281 -22 67 -66 164 -78 168 -4 2
-8 9 -8 16 0 15 -104 142 -144 176 -72 61 -214 146 -258 154 -7 2 -38 10 -69
20 -82 24 -159 35 -294 42 -170 8 -169 7 -280 127 -16 17 -185 224 -295 361
-8 10 -31 38 -50 61 -19 23 -42 51 -50 61 -151 189 -169 208 -227 238 -98 49
-97 49 -790 50 -359 1 -656 1 -660 0z m548 -363 c0 -3 2 -124 2 -269 l2 -262
-25 0 c-41 -1 -843 -1 -875 0 -17 0 -25 4 -19 8 6 4 36 41 67 82 30 41 62 84
71 95 9 11 66 87 128 169 68 90 125 156 144 166 27 14 69 16 268 16 130 0 236
-2 237 -5z m736 -15 c34 -14 66 -47 164 -169 202 -250 243 -301 261 -321 10
-11 16 -22 13 -24 -3 -3 -722 -6 -804 -3 -8 1 -11 8 -8 21 3 11 1 20 -4 20 -5
0 -4 11 1 25 5 14 6 25 2 25 -8 0 -7 203 2 225 3 8 2 15 -2 15 -8 0 -8 68 1
76 3 3 2 17 -3 30 -6 14 -6 24 0 24 5 0 5 12 0 29 -5 17 -4 33 1 38 5 5 83 9
172 8 130 -1 170 -5 204 -19z"/>
<path d="M1320 2045 c-128 -27 -233 -109 -290 -227 -63 -132 -47 -314 38 -420
89 -111 189 -163 322 -167 122 -3 216 35 300 121 84 85 123 181 119 296 -4
107 -36 192 -104 269 -93 107 -247 158 -385 128z"/>
<path d="M3665 2052 c-122 -15 -253 -108 -309 -222 -38 -76 -49 -132 -42 -217
10 -112 10 -113 16 -113 3 0 11 -15 18 -33 33 -92 139 -182 261 -224 73 -25
202 -14 283 24 83 39 159 115 200 201 31 63 33 73 32 177 0 104 -2 113 -34
175 -82 160 -252 253 -425 232z"/>
</g>
</svg>
